<?xml version="1.0" encoding="UTF-8" standalone="no"?>
<!-- Created with Inkscape (http://www.inkscape.org/) -->

<svg
   xmlns:dc="http://purl.org/dc/elements/1.1/"
   xmlns:cc="http://creativecommons.org/ns#"
   xmlns:rdf="http://www.w3.org/1999/02/22-rdf-syntax-ns#"
   xmlns:svg="http://www.w3.org/2000/svg"
   xmlns="http://www.w3.org/2000/svg"
   xmlns:sodipodi="http://sodipodi.sourceforge.net/DTD/sodipodi-0.dtd"
   xmlns:inkscape="http://www.inkscape.org/namespaces/inkscape"
   width="210mm"
   height="297mm"
   viewBox="0 0 210 297"
   version="1.1"
   id="svg17404"
   inkscape:version="0.92.5 (2060ec1f9f, 2020-04-08)"
   sodipodi:docname="logo-monochrome .svg">
  <defs
     id="defs17398" />
  <sodipodi:namedview
     id="base"
     pagecolor="#ffffff"
     bordercolor="#666666"
     borderopacity="1.0"
     inkscape:pageopacity="0.0"
     inkscape:pageshadow="2"
     inkscape:zoom="0.47039007"
     inkscape:cx="374.28571"
     inkscape:cy="557.14286"
     inkscape:document-units="mm"
     inkscape:current-layer="layer1"
     showgrid="false"
     inkscape:window-width="1920"
     inkscape:window-height="951"
     inkscape:window-x="1920"
     inkscape:window-y="34"
     inkscape:window-maximized="1" />
  <metadata
     id="metadata17401">
    <rdf:RDF>
      <cc:Work
         rdf:about="">
        <dc:format>image/svg+xml</dc:format>
        <dc:type
           rdf:resource="http://purl.org/dc/dcmitype/StillImage" />
        <dc:title></dc:title>
      </cc:Work>
    </rdf:RDF>
  </metadata>
  <g
     inkscape:label="Layer 1"
     inkscape:groupmode="layer"
     id="layer1">
    <path
       inkscape:connector-curvature="0"
       id="path8856"
       d="m 1.5980218,43.273972 v 90.249358 12.64596 100.66388 H 205.53293 V 146.16929 133.52333 43.273972 Z"
       style="fill:#000000;fill-opacity:0;stroke:#ffffff;stroke-width:0;stroke-miterlimit:4;stroke-dasharray:none;stroke-opacity:1"
       inkscape:export-xdpi="96"
       inkscape:export-ydpi="96" />
    <g
       id="g18179"
       inkscape:export-xdpi="96"
       inkscape:export-ydpi="96">
      <path
         sodipodi:nodetypes="cscccscccc"
         inkscape:connector-curvature="0"
         id="path15390"
         d="m 74.555528,106.03565 c 0,0 4.372187,-17.732883 13.253165,-24.393616 8.880985,-6.660732 15.719477,-7.589155 15.719477,-7.589155 0,0 17.30665,7.311628 21.74715,15.082488 4.44048,7.77085 5.7204,15.771463 5.7204,15.771463 0,0 4.27069,0.60284 13.42919,-1.61741 9.15851,-2.22024 15.16713,-5.155393 15.16713,-5.155393 8.04401,53.404363 -10.7082,93.395943 -56.81642,117.771783 C 51.610809,187.23444 40.859515,156.01733 47.464261,100.01535 Z"
         style="fill:#000000;fill-opacity:1;stroke:none;stroke-width:0.46018031px;stroke-linecap:butt;stroke-linejoin:miter;stroke-opacity:1" />
      <path
         sodipodi:nodetypes="ccccccsccccccscscscccc"
         id="path17926-2"
         d="m 86.852438,198.3873 c 0.245597,-2.6775 1.825064,-6.22872 3.883785,-8.7327 0.626303,-0.76181 1.974437,-2.12653 2.995824,-3.0327 1.73477,-1.53913 2.917976,-2.38913 10.356063,-7.43967 5.79892,-3.93755 8.43636,-7.02135 9.45304,-11.05302 0.34675,-1.3751 0.38678,-4.43188 0.0778,-5.93073 -0.82441,-3.99707 -3.72006,-7.42079 -9.68833,-11.45523 -6.688193,-4.52111 -8.484277,-5.79626 -9.947883,-7.0628 -2.803821,-2.42621 -10.104694,-11.26558 -11.199455,-13.87599 -0.668486,-1.59394 2.433971,0.1323 2.428962,-1.01614 3.164501,6.24597 12.283837,13.79822 18.023066,15.83234 0.39346,0.2621 0.81976,0.54527 1.28363,0.85263 4.16821,2.762 6.20097,4.28773 8.11901,6.09394 4.68111,4.40819 6.76683,9.6732 6.09775,15.39267 -0.53816,4.6003 -2.43967,8.07152 -6.43297,11.74378 -2.44941,2.25245 -3.25684,2.85716 -8.22002,6.15635 -7.112399,4.7278 -9.201385,6.6222 -10.935427,9.91686 -0.798808,1.5177 -1.412359,3.4198 -1.412359,4.37853 v 0.41475 h -2.495452 -2.495425 z"
         style="fill:#ffffff;fill-opacity:1;stroke:none;stroke-width:0.1692984"
         inkscape:connector-curvature="0" />
      <path
         id="path17928-3"
         d="m 113.78438,199.15542 c 0,-0.95873 -0.61352,-2.86083 -1.41239,-4.37853 -1.31205,-2.49291 -3.05535,-4.3359 -6.52551,-6.8986 -1.20024,-0.88645 -1.41208,-1.11566 -1.29364,-1.39997 0.10546,-0.25343 3.46881,-2.50675 3.74154,-2.50675 0.34614,0 2.7998,1.94898 4.44108,3.52755 0.91647,0.88147 2.08902,2.16832 2.60567,2.85963 1.76993,2.36829 3.10106,5.58179 3.32556,8.02855 l 0.10854,1.18287 h -2.49546 -2.49542 z"
         style="fill:#ffffff;fill-opacity:1;stroke:none;stroke-width:0.1692984"
         inkscape:connector-curvature="0" />
      <path
         id="path17930-7"
         d="m 93.39025,197.22401 c -0.05343,-0.1284 0.0084,-0.43934 0.140142,-0.69053 l 0.237487,-0.45674 8.935561,-0.0422 c 9.84408,-0.0464 9.49319,-0.0814 9.49319,0.94738 v 0.47586 h -9.35456 c -7.976969,0 -9.36891,-0.0344 -9.451986,-0.23385 z"
         style="fill:#ffffff;fill-opacity:1;stroke-width:0.1692984"
         inkscape:connector-curvature="0" />
      <path
         id="path17932-5"
         d="m 98.029431,190.89685 c -0.05147,-0.12335 0.162242,-0.45231 0.474609,-0.7312 l 0.567979,-0.50708 h 3.737211 3.73732 l 0.56138,0.46208 c 0.37595,0.30943 0.5244,0.55094 0.44932,0.73117 -0.1007,0.24112 -0.59732,0.26909 -4.77328,0.26909 -3.799081,0 -4.678453,-0.0414 -4.754539,-0.22406 z"
         style="fill:#ffffff;fill-opacity:1;stroke-width:0.1692984"
         inkscape:connector-curvature="0" />
      <path
         id="path17934-9"
         d="m 96.338635,181.36487 c -1.411547,-0.94192 -4.738177,-4.06334 -5.837886,-5.47777 -3.329705,-4.28273 -4.528185,-9.3554 -3.445259,-14.58228 0.711452,-3.43368 2.672519,-6.73824 5.717829,-9.63482 1.732587,-1.64794 4.045968,-3.44528 4.434562,-3.44528 0.468511,0 3.875899,2.30613 3.875899,2.62323 0,0.0713 -0.86477,0.78863 -1.921713,1.59446 -4.304213,3.28151 -6.548107,6.29613 -7.261715,9.75607 -0.309152,1.49885 -0.269094,4.55563 0.07776,5.93073 0.886896,3.51704 3.291271,6.64215 7.430058,9.65725 1.56447,1.13974 1.68459,1.26276 1.54948,1.58713 -0.1049,0.25203 -3.43416,2.48566 -3.70471,2.48566 -0.09511,0 -0.506608,-0.22238 -0.914196,-0.49438 z"
         style="fill:#ffffff;fill-opacity:1;stroke:none;stroke-width:0.1692984"
         inkscape:connector-curvature="0" />
      <path
         id="path17936-2"
         d="m 101.61981,177.98778 c -0.4108,-0.3159 -0.56191,-0.54418 -0.48398,-0.7312 0.094,-0.22602 0.37842,-0.2719 1.6875,-0.2719 1.15347,0 1.59852,0.0579 1.66501,0.21791 0.11245,0.26965 -0.002,0.42675 -0.65008,0.88454 -0.70396,0.49794 -1.48736,0.46289 -2.21845,-0.0993 z"
         style="fill:#ffffff;fill-opacity:1;stroke-width:0.1692984"
         inkscape:connector-curvature="0" />
      <path
         id="path17938-2"
         d="m 94.811169,171.71187 c -0.155808,-0.21902 -0.255667,-0.52974 -0.222102,-0.69053 0.05762,-0.27637 0.506386,-0.29237 8.258743,-0.29237 9.00121,0 8.7631,-0.0282 7.93179,0.94517 l -0.37234,0.43597 h -7.65641 -7.656376 z"
         style="fill:#ffffff;fill-opacity:1;stroke-width:0.1692984"
         inkscape:connector-curvature="0" />
      <path
         id="path17940-8"
         d="m 93.070303,165.51784 c -0.325014,-0.29942 -0.342636,-0.46577 -0.09455,-0.89274 0.177345,-0.30479 0.471588,-0.3143 9.754767,-0.3143 10.08142,0 9.99549,-0.006 9.99549,0.7312 0,0.7371 0.0806,0.7312 -9.90092,0.7312 -8.380725,0 -9.509612,-0.0297 -9.754732,-0.25539 z"
         style="fill:#ffffff;fill-opacity:1;stroke-width:0.1692984"
         inkscape:connector-curvature="0" />
      <path
         id="path17942-9"
         d="m 94.6103,159.16702 c -0.06182,-0.14797 0.0056,-0.45883 0.144618,-0.69058 l 0.256786,-0.42132 7.793386,-0.0422 7.79333,-0.0422 0.28286,0.50381 c 0.56144,1.00005 0.87987,0.96192 -8.03336,0.96192 -7.401609,0 -8.135327,-0.0252 -8.237454,-0.2691 z"
         style="fill:#ffffff;fill-opacity:1;stroke-width:0.1692984"
         inkscape:connector-curvature="0" />
      <path
         id="path17944-7"
         d="m 101.13701,152.83016 c -0.18322,-0.44045 0.87274,-1.19325 1.67421,-1.19325 0.85733,0 1.96674,0.83834 1.61949,1.22377 -0.32971,0.36597 -3.13938,0.33992 -3.2937,-0.0305 z"
         style="fill:#ffffff;fill-opacity:1;stroke-width:0.1692984"
         inkscape:connector-curvature="0" />
      <path
         id="path17948-6"
         d="m 98.479341,139.85524 c -0.637492,-0.55162 -0.647758,-0.57802 -0.316481,-0.8124 0.486021,-0.34386 8.94434,-0.36137 9.25266,-0.0196 0.2845,0.31578 0.0764,0.69229 -0.59308,1.07348 -0.52856,0.30091 -0.8726,0.32821 -4.13041,0.32821 h -3.553802 z"
         style="fill:#ffffff;fill-opacity:1;stroke-width:0.1692984"
         inkscape:connector-curvature="0" />
      <path
         id="path17950-1"
         d="m 93.827125,133.92311 c -0.159163,-0.0856 -0.341011,-0.34617 -0.404511,-0.57928 -0.245597,-0.90161 -0.470831,-0.88021 9.255906,-0.88021 4.9281,0 9.08579,0.0442 9.23925,0.0982 0.3562,0.12587 0.35839,0.69959 0.006,1.16512 l -0.27469,0.36112 -8.76577,-0.006 c -5.250627,-0.006 -8.881624,-0.0674 -9.054746,-0.16029 z"
         style="fill:#ffffff;fill-opacity:1;stroke-width:0.1692984"
         inkscape:connector-curvature="0" />
      <path
         style="fill:#ffffff;fill-opacity:1;stroke:none;stroke-width:0.57432908px;stroke-linecap:butt;stroke-linejoin:miter;stroke-opacity:1"
         d="m 102.13605,80.424006 c -1.07703,0.179583 -8.61626,1.436023 -13.642409,7.000701 -5.026181,5.56471 -7.180257,15.437513 -7.180257,15.437513 0,0 4.308152,-2.872103 6.821228,-3.590133 2.513076,-0.71799 2.692577,-0.89752 2.692577,-0.89752 0,0 -13.642406,12.565373 -14.539957,19.925103 -2.74497,17.14717 23.608135,30.75544 33.144148,31.04079 -15.601403,-6.85211 -36.355277,-28.34541 -21.835293,-39.29803 8.077753,-5.74419 18.848083,-5.38516 18.848083,-5.38516 -7.115492,-2.83504 -12.168,-1.31619 -18.489057,1.61553 0.717997,-0.718 3.5901,-4.66713 8.616281,-5.92365 5.026156,-1.256563 6.821206,-1.974583 6.821206,-1.974583 z"
         id="path17952-2"
         inkscape:connector-curvature="0"
         sodipodi:nodetypes="ccccccccccscc" />
      <path
         style="fill:#ffffff;fill-opacity:1;stroke:none;stroke-width:0.57432908px;stroke-linecap:butt;stroke-linejoin:miter;stroke-opacity:1"
         d="m 105.18765,80.064977 c 0,0 6.6417,2.154108 12.74491,7.89828 6.10317,5.74416 8.61625,15.078463 8.61625,15.078463 0,0 -8.61625,-3.590133 -7.71876,-3.051603 21.29713,16.212963 7.60519,39.800743 -13.1039,44.337863 15.6426,-13.29098 27.01867,-29.08302 3.41063,-39.13222 l 6.70403,0.24701 c -4.72986,-3.98583 -8.54024,-4.60022 -12.26871,-4.91427 l 2.87207,-1.795073 z"
         id="path17954-9"
         inkscape:connector-curvature="0"
         sodipodi:nodetypes="cscccccccc" />
      <path
         style="fill:#ffffff;fill-opacity:1;stroke:none;stroke-width:0.74010527px;stroke-linecap:butt;stroke-linejoin:miter;stroke-opacity:1"
         d="m 74.582561,129.5393 c 0.266882,12.11544 0.672261,16.48236 8.433731,26.34655 l -11.664275,-8.2779 9.406699,17.30831 c 0,0 -7.525382,-4.89146 -10.159243,-9.78295 -2.633887,-4.89147 -3.76269,-9.03042 -3.76269,-9.03042 0,0 -0.376258,3.76267 0.752544,9.4067 1.1288,5.64401 4.891492,26.71498 4.891492,26.71498 0,0 -6.772838,-16.55576 -7.525353,-18.43711 -0.752544,-1.88132 -2.257631,-13.16936 -2.257631,-13.16936 l -0.752518,16.17954 c -2.813555,-2.7038 -14.879693,-21.82167 -7.55012,-22.57436 1.123891,-1.64312 1.575765,-3.17923 3.148229,-4.60373 5.019342,-4.54707 12.659752,-7.95691 17.039135,-10.08025 z"
         id="path17956-3"
         inkscape:connector-curvature="0"
         sodipodi:nodetypes="ccccccscccccsc" />
      <path
         style="fill:#ffffff;fill-opacity:1;stroke:none;stroke-width:0.74010527px;stroke-linecap:butt;stroke-linejoin:miter;stroke-opacity:1"
         d="m 78.117087,136.64857 c -0.490828,10.44047 1.306381,9.72795 12.77184,11.18076 -4.906473,-3.52093 -9.455121,-6.1516 -12.77184,-11.18076 z"
         id="path17960-9"
         inkscape:connector-curvature="0"
         sodipodi:nodetypes="ccc" />
      <path
         style="fill:#ffffff;fill-opacity:1;stroke:none;stroke-width:0.74010527px;stroke-linecap:butt;stroke-linejoin:miter;stroke-opacity:1"
         d="m 130.8023,132.93354 c 0,1.88131 0.75255,6.02027 -1.1288,11.66427 -1.88134,5.64403 -3.3864,7.90164 -3.3864,7.90164 l 6.39655,-8.2779 c 0,0 0.75254,3.01014 -0.75255,6.77281 -1.50505,3.76269 -3.76266,7.90164 -3.76266,7.90164 0,0 6.77281,-3.76269 8.27787,-6.0203 1.50509,-2.2576 1.88135,-7.52535 1.88135,-7.52535 l 1.1288,9.4067 3.01015,-3.01015 c -2.54447,6.63924 -2.77739,12.92673 -17.68457,21.44726 0,0 4.72908,0.70692 11.75847,-3.80829 -0.85449,9.23876 -8.44018,18.27932 -10.1888,22.15846 0.002,0.003 14.23304,-8.67284 13.22901,-19.02115 5.81604,-3.76269 12.27152,-24.91523 11.16378,-24.91523 l -17.30831,-18.4371 z"
         id="path17962-4"
         inkscape:connector-curvature="0"
         sodipodi:nodetypes="ccccccccccccccccc" />
      <path
         style="fill:#ffffff;fill-opacity:1;stroke:none;stroke-width:0.74010527px;stroke-linecap:butt;stroke-linejoin:miter;stroke-opacity:1"
         d="m 114.26761,146.33842 c 6.37655,-2.29027 10.93553,-5.90034 13.16936,-10.1592 -2.4354,5.55497 -4.69865,9.50465 -10.53548,11.66429 z"
         id="path17964-7"
         inkscape:connector-curvature="0"
         sodipodi:nodetypes="cccc" />
      <path
         inkscape:connector-curvature="0"
         id="path17968-4"
         d="m 51.667136,105.49915 -0.322337,2.74809 c -2.655842,22.83588 -1.358484,41.68165 6.321124,58.18496 7.67961,16.50329 21.677577,30.49398 43.909157,43.81082 l 0.95063,0.56817 0.97248,-0.51903 c 42.5148,-22.55287 56.39098,-59.46746 53.33893,-101.58053 l -0.16389,-2.23998 -2.19628,0.4644 c -7.05635,1.49658 -14.38554,2.58805 -21.73331,3.34357 l 0.39883,3.8954 c 6.68587,-0.68748 13.32893,-1.76131 19.83752,-3.05404 2.35217,39.82711 -10.61823,73.57745 -50.35594,95.11738 -21.188297,-12.86714 -34.255345,-26.08753 -41.406921,-41.45611 -7.015086,-15.07524 -8.396402,-32.47071 -6.1463,-53.83063 1.516687,0.47748 2.802765,0.96526 5.19567,1.40956 3.610552,0.67033 8.199649,1.3072 13.532784,1.84114 l 0.393359,-3.89539 c -5.246198,-0.52524 -9.747073,-1.15443 -13.210442,-1.79743 -3.463364,-0.64303 -5.981706,-1.37596 -6.829219,-1.792 z"
         style="color:#000000;font-style:normal;font-variant:normal;font-weight:normal;font-stretch:normal;font-size:medium;line-height:normal;font-family:sans-serif;font-variant-ligatures:normal;font-variant-position:normal;font-variant-caps:normal;font-variant-numeric:normal;font-variant-alternates:normal;font-feature-settings:normal;text-indent:0;text-align:start;text-decoration:none;text-decoration-line:none;text-decoration-style:solid;text-decoration-color:#000000;letter-spacing:normal;word-spacing:normal;text-transform:none;writing-mode:lr-tb;direction:ltr;text-orientation:mixed;dominant-baseline:auto;baseline-shift:baseline;text-anchor:start;white-space:normal;shape-padding:0;clip-rule:nonzero;display:inline;overflow:visible;visibility:visible;opacity:1;isolation:auto;mix-blend-mode:normal;color-interpolation:sRGB;color-interpolation-filters:linearRGB;solid-color:#000000;solid-opacity:1;vector-effect:none;fill:#ffffff;fill-opacity:1;fill-rule:nonzero;stroke:none;stroke-width:3.91614771;stroke-linecap:butt;stroke-linejoin:miter;stroke-miterlimit:4;stroke-dasharray:none;stroke-dashoffset:0;stroke-opacity:1;color-rendering:auto;image-rendering:auto;shape-rendering:auto;text-rendering:auto;enable-background:accumulate" />
      <path
         inkscape:connector-curvature="0"
         id="path17970-5"
         d="m 103.63389,72.849488 -0.21679,0.01953 C 94.211149,73.728616 79.840144,83.016351 73.741313,104.72449 57.986346,103.23927 53.760255,99.582767 47.608502,98.835817 l -1.177735,-0.14258 -0.146484,1.17578 c -3.300283,26.552293 -2.264288,48.710663 6.119141,67.824223 8.383429,19.11356 24.097115,35.06969 49.796876,49.2539 l 0.56445,0.31055 0.57032,-0.30274 c 48.51204,-25.84802 65.20309,-68.06856 57.43164,-118.999993 l -0.25391,-1.67383 -1.48828,0.80859 c -11.39022,6.183063 -23.36231,6.668273 -27.12891,6.613293 -3.68492,-17.552476 -18.15429,-28.064518 -28.05078,-30.796883 z m -0.20312,2.427734 c 9.13377,2.616661 23.29742,12.883495 26.39453,29.843748 l 0.17188,0.93751 0.95312,0.0371 c 3.12762,0.11824 15.49056,-0.0976 27.66602,-6.177743 7.04676,49.294603 -9.03299,89.415083 -55.83399,114.613283 -25.042189,-13.93243 -40.124297,-29.37833 -48.201174,-47.79297 -7.997486,-18.23364 -9.11503,-39.53853 -6.05078,-65.24609 4.983009,1.02304 10.183,4.39174 25.923828,5.72852 l 0.996095,0.084 0.25586,-0.96679 C 81.372283,84.816733 95.436662,76.139818 103.43077,75.277222 Z"
         style="color:#000000;font-style:normal;font-variant:normal;font-weight:normal;font-stretch:normal;font-size:medium;line-height:normal;font-family:sans-serif;font-variant-ligatures:normal;font-variant-position:normal;font-variant-caps:normal;font-variant-numeric:normal;font-variant-alternates:normal;font-feature-settings:normal;text-indent:0;text-align:start;text-decoration:none;text-decoration-line:none;text-decoration-style:solid;text-decoration-color:#000000;letter-spacing:normal;word-spacing:normal;text-transform:none;writing-mode:lr-tb;direction:ltr;text-orientation:mixed;dominant-baseline:auto;baseline-shift:baseline;text-anchor:start;white-space:normal;shape-padding:0;clip-rule:nonzero;display:inline;overflow:visible;visibility:visible;opacity:1;isolation:auto;mix-blend-mode:normal;color-interpolation:sRGB;color-interpolation-filters:linearRGB;solid-color:#000000;solid-opacity:1;vector-effect:none;fill:#ffffff;fill-opacity:1;fill-rule:nonzero;stroke:none;stroke-width:2.37766123;stroke-linecap:butt;stroke-linejoin:miter;stroke-miterlimit:4;stroke-dasharray:none;stroke-dashoffset:0;stroke-opacity:1;color-rendering:auto;image-rendering:auto;shape-rendering:auto;text-rendering:auto;enable-background:accumulate" />
    </g>
  </g>
</svg>
